<?xml version="1.0" encoding="utf-8"?>
<!-- Designed by Vexels.com - 2017 All Rights Reserved - https://vexels.com/terms-and-conditions/  -->

<svg version="1.1" id="Layer_1" xmlns="http://www.w3.org/2000/svg" xmlns:xlink="http://www.w3.org/1999/xlink" x="0px" y="0px"
	 width="1200px" height="1200px" viewBox="0 0 1200 1200" enable-background="new 0 0 1200 1200" xml:space="preserve">
<g>
	<path fill="#FFFFFF" d="M1139.371,610.629C1139.371,908.538,897.888,1150,600,1150S60.629,908.538,60.629,610.629
		C60.629,312.74,302.112,71.263,600,71.263S1139.371,312.74,1139.371,610.629z"/>
	<path fill="#E52226" d="M1139.371,589.36c0,297.905-241.483,539.371-539.371,539.371S60.629,887.265,60.629,589.36
		C60.629,291.472,302.112,50,600,50S1139.371,291.472,1139.371,589.36z"/>
	<g>
		<path fill="#FFFFFF" d="M893.428,754.641V486.976c0,0-202.39-164.883-246.177-207.01c-37.124-35.696-69.975,0.704-69.975,0.704
			L329.561,494.127c0,0,0,174.861,0,253.381c0,13.177,2.369,23.964,6.043,33.106l163.284-180.805L360.532,497.297l249.873-210.994
			l258.251,210.994L718.068,604.109l171.839,190.246C896.859,775.284,893.428,754.641,893.428,754.641z"/>
		<path fill="#FFFFFF" d="M606.541,685.551l-71.181-56.727L367.029,815.17c20.211,10.753,41.064,10.858,41.064,10.858
			s360.426,0,431.819,0c5.423,0,10.127-0.643,14.533-1.539L680.313,631.692L606.541,685.551z"/>
		<polygon fill="#FFFFFF" points="774.983,531.754 774.983,471.458 448.87,472.355 448.936,525.013 607.825,648.992 		"/>
	</g>
</g>
</svg>
